<svg width="16" height="12" viewBox="0 0 16 12" fill="none" xmlns="http://www.w3.org/2000/svg">
<path d="M5.07384 11.8485C4.83037 11.7484 4.6094 11.6018 4.42366 11.4171L0.587582 7.63382C0.21136 7.26277 0 6.75952 0 6.23478C0 5.71003 0.21136 5.20678 0.587582 4.83574C0.963805 4.46469 1.47407 4.25623 2.00613 4.25623C2.53819 4.25623 3.04846 4.46469 3.42468 4.83574L5.84221 7.23972L12.5753 0.579501C12.9515 0.208452 13.4618 0 13.9939 0C14.5259 0 15.0362 0.208452 15.4124 0.579501C15.7886 0.950549 16 1.4538 16 1.97854C16 2.50328 15.7886 3.00653 15.4124 3.37758L7.26076 11.4171C7.07502 11.6018 6.85404 11.7484 6.61058 11.8485C6.36711 11.9485 6.10596 12 5.84221 12C5.57845 12 5.31731 11.9485 5.07384 11.8485Z" fill="white"/>
</svg>
