<svg width="15" height="15" viewBox="0 0 15 15" fill="none" xmlns="http://www.w3.org/2000/svg">
<path d="M9.71229 1.2085H11.758C12.6052 1.2085 13.2917 1.90078 13.2917 2.75514V4.8181C13.2917 5.67246 12.6052 6.36475 11.758 6.36475H9.71229C8.86508 6.36475 8.1786 5.67246 8.1786 4.8181V2.75514C8.1786 1.90078 8.86508 1.2085 9.71229 1.2085Z" fill="#7E7695"/>
<path d="M4.78744 8.13525C5.63461 8.13525 6.32157 8.82781 6.32162 9.68213V11.7456C6.32139 12.5992 5.6345 13.2915 4.78744 13.2915H2.74252C1.89545 13.2915 1.20856 12.5992 1.20834 11.7456V9.68213C1.20839 8.82781 1.89534 8.13525 2.74252 8.13525H4.78744ZM11.7581 8.13525C12.6052 8.13534 13.2913 8.82787 13.2913 9.68213V11.7456C13.2911 12.5991 12.6051 13.2914 11.7581 13.2915H9.71224C8.8652 13.2915 8.17926 12.5992 8.17904 11.7456V9.68213C8.17909 8.82783 8.86509 8.13528 9.71224 8.13525H11.7581ZM4.78744 1.2085C5.63464 1.2085 6.32162 1.90101 6.32162 2.75537V4.81787C6.32162 5.67223 5.63464 6.36475 4.78744 6.36475H2.74252C1.89531 6.36475 1.20834 5.67223 1.20834 4.81787V2.75537C1.20834 1.90101 1.89531 1.2085 2.74252 1.2085H4.78744Z" fill="#7E7695"/>
</svg>
