<svg width="72" height="72" viewBox="0 0 72 72" fill="none" xmlns="http://www.w3.org/2000/svg">
<path d="M52.5 66L53.79 58.26C53.8475 57.9051 54.0306 57.5826 54.3059 57.3513C54.5812 57.12 54.9305 56.9954 55.29 57H63.24C63.5995 56.9954 63.9488 57.12 64.2241 57.3513C64.4994 57.5826 64.6825 57.9051 64.74 58.26L66 66H52.5Z" fill="url(#paint0_linear_96_6914)"/>
<path d="M45 67.5L47.625 60.945C47.7362 60.6659 47.9286 60.4266 48.1773 60.2581C48.426 60.0896 48.7196 59.9997 49.02 60H54.48C54.7804 59.9997 55.074 60.0896 55.3227 60.2581C55.5714 60.4266 55.7638 60.6659 55.875 60.945L58.5 67.5H45Z" fill="url(#paint1_linear_96_6914)"/>
<path d="M24 9C23.175 9 23.025 8.655 20.595 6.21C20.3493 5.92305 20.2209 5.55393 20.2354 5.17642C20.25 4.79891 20.4065 4.4408 20.6737 4.17366C20.9408 3.90651 21.2989 3.75001 21.6764 3.73543C22.0539 3.72085 22.423 3.84926 22.71 4.095L25.065 6.435C25.2765 6.64481 25.4208 6.91286 25.4794 7.20498C25.538 7.4971 25.5083 7.80006 25.3941 8.07522C25.2798 8.35039 25.0862 8.5853 24.8379 8.75C24.5896 8.9147 24.2979 9.00173 24 9ZM36 9C36.825 9 36.975 8.655 39.405 6.21C39.6507 5.92305 39.7792 5.55393 39.7646 5.17642C39.75 4.79891 39.5935 4.4408 39.3263 4.17366C39.0592 3.90651 38.7011 3.75001 38.3236 3.73543C37.9461 3.72085 37.577 3.84926 37.29 4.095L34.935 6.435C34.7235 6.64481 34.5792 6.91286 34.5206 7.20498C34.462 7.4971 34.4917 7.80006 34.6059 8.07522C34.7202 8.35039 34.9138 8.5853 35.1621 8.75C35.4104 8.9147 35.7021 9.00173 36 9ZM10.5 22.5H7.5V19.5C7.5 19.1022 7.65804 18.7206 7.93934 18.4393C8.22064 18.158 8.60218 18 9 18C9.39782 18 9.77936 18.158 10.0607 18.4393C10.342 18.7206 10.5 19.1022 10.5 19.5V22.5ZM6 34.5H3C2.60218 34.5 2.22064 34.342 1.93934 34.0607C1.65804 33.7794 1.5 33.3978 1.5 33C1.5 32.6022 1.65804 32.2206 1.93934 31.9393C2.22064 31.658 2.60218 31.5 3 31.5H6V34.5ZM7.5 40.5H3C2.60218 40.5 2.22064 40.342 1.93934 40.0607C1.65804 39.7794 1.5 39.3978 1.5 39C1.5 38.6022 1.65804 38.2206 1.93934 37.9393C2.22064 37.658 2.60218 37.5 3 37.5H7.5V40.5ZM6 28.5H3C2.60218 28.5 2.22064 28.342 1.93934 28.0607C1.65804 27.7794 1.5 27.3978 1.5 27C1.5 26.6022 1.65804 26.2206 1.93934 25.9393C2.22064 25.658 2.60218 25.5 3 25.5H6V28.5ZM48 10.5H45C44.6022 10.5 44.2206 10.342 43.9393 10.0607C43.658 9.77936 43.5 9.39782 43.5 9C43.5 8.60218 43.658 8.22064 43.9393 7.93934C44.2206 7.65804 44.6022 7.5 45 7.5H48V10.5ZM54 10.5H57C57.3978 10.5 57.7794 10.342 58.0607 10.0607C58.342 9.77936 58.5 9.39782 58.5 9C58.5 8.60218 58.342 8.22064 58.0607 7.93934C57.7794 7.65804 57.3978 7.5 57 7.5H54V10.5ZM54 16.5H57C57.3978 16.5 57.7794 16.342 58.0607 16.0607C58.342 15.7794 58.5 15.3978 58.5 15C58.5 14.6022 58.342 14.2206 58.0607 13.9393C57.7794 13.658 57.3978 13.5 57 13.5H54V16.5ZM54 22.5H57C57.3978 22.5 57.7794 22.342 58.0607 22.0607C58.342 21.7794 58.5 21.3978 58.5 21C58.5 20.6022 58.342 20.2206 58.0607 19.9393C57.7794 19.658 57.3978 19.5 57 19.5H54V22.5ZM21 21H18C17.6022 21 17.2206 20.842 16.9393 20.5607C16.658 20.2794 16.5 19.8978 16.5 19.5C16.5 19.1022 16.658 18.7206 16.9393 18.4393C17.2206 18.158 17.6022 18 18 18H21V21ZM21 13.5H18C17.6022 13.5 17.2206 13.342 16.9393 13.0607C16.658 12.7794 16.5 12.3978 16.5 12C16.5 11.6022 16.658 11.2206 16.9393 10.9393C17.2206 10.658 17.6022 10.5 18 10.5H21V13.5ZM28.5 6V3C28.5 2.60218 28.658 2.22064 28.9393 1.93934C29.2206 1.65804 29.6022 1.5 30 1.5C30.3978 1.5 30.7794 1.65804 31.0607 1.93934C31.342 2.22064 31.5 2.60218 31.5 3V6H28.5ZM49.5 6V3C49.5 2.60218 49.658 2.22064 49.9393 1.93934C50.2206 1.65804 50.6022 1.5 51 1.5C51.3978 1.5 51.7794 1.65804 52.0607 1.93934C52.342 2.22064 52.5 2.60218 52.5 3V6H49.5ZM39 12H42C42.3978 12 42.7794 12.158 43.0607 12.4393C43.342 12.7206 43.5 13.1022 43.5 13.5C43.5 13.8978 43.342 14.2794 43.0607 14.5607C42.7794 14.842 42.3978 15 42 15H39V12ZM39 33H42C42.3978 33 42.7794 33.158 43.0607 33.4393C43.342 33.7206 43.5 34.1022 43.5 34.5C43.5 34.8978 43.342 35.2794 43.0607 35.5607C42.7794 35.842 42.3978 36 42 36H39V33ZM39 40.5H42C42.3978 40.5 42.7794 40.658 43.0607 40.9393C43.342 41.2206 43.5 41.6022 43.5 42C43.5 42.3978 43.342 42.7794 43.0607 43.0607C42.7794 43.342 42.3978 43.5 42 43.5H39V40.5ZM39 48H42C42.3978 48 42.7794 48.158 43.0607 48.4393C43.342 48.7206 43.5 49.1022 43.5 49.5C43.5 49.8978 43.342 50.2794 43.0607 50.5607C42.7794 50.842 42.3978 51 42 51H39V48ZM12 28.5H15C15.3978 28.5 15.7794 28.342 16.0607 28.0607C16.342 27.7794 16.5 27.3978 16.5 27C16.5 26.6022 16.342 26.2206 16.0607 25.9393C15.7794 25.658 15.3978 25.5 15 25.5H12V28.5Z" fill="#B275FF"/>
<path d="M40.5 61.5H19.5V15C19.5 12.2152 20.6062 9.54451 22.5754 7.57538C24.5445 5.60625 27.2152 4.5 30 4.5C32.7848 4.5 35.4555 5.60625 37.4246 7.57538C39.3938 9.54451 40.5 12.2152 40.5 15V61.5Z" fill="url(#paint2_linear_96_6914)"/>
<path d="M70.5 70.5H1.5C1.5 63 13.08 57 27.375 57C36.69 57 44.865 59.565 49.41 63.435C51.1544 63.1401 52.9208 62.9945 54.69 63C63.435 63 70.5 66.36 70.5 70.5Z" fill="#FEB061"/>
<path d="M19.5 33V42H10.5C8.9087 42 7.38258 41.3679 6.25736 40.2426C5.13214 39.1174 4.5 37.5913 4.5 36V25.5C4.5 24.3065 4.97411 23.1619 5.81802 22.318C6.66193 21.4741 7.80653 21 9 21C10.1935 21 11.3381 21.4741 12.182 22.318C13.0259 23.1619 13.5 24.3065 13.5 25.5V33H19.5Z" fill="url(#paint3_linear_96_6914)"/>
<path d="M40.5 19.5V28.5H49.5C51.0913 28.5 52.6174 27.8679 53.7426 26.7426C54.8679 25.6174 55.5 24.0913 55.5 22.5V9C55.5 7.80653 55.0259 6.66193 54.182 5.81802C53.3381 4.97411 52.1935 4.5 51 4.5C49.8065 4.5 48.6619 4.97411 47.818 5.81802C46.9741 6.66193 46.5 7.80653 46.5 9V19.5H40.5Z" fill="url(#paint4_linear_96_6914)"/>
<path d="M58.5 54H57C55.8065 54 54.6619 53.5259 53.818 52.682C52.9741 51.8381 52.5 50.6935 52.5 49.5C52.5 48.3065 52.9741 47.1619 53.818 46.318C54.6619 45.4741 55.8065 45 57 45H69C69.3978 45 69.7794 45.158 70.0607 45.4393C70.342 45.7206 70.5 46.1022 70.5 46.5C70.5 46.8978 70.342 47.2794 70.0607 47.5607C69.7794 47.842 69.3978 48 69 48H57C56.6022 48 56.2206 48.158 55.9393 48.4393C55.658 48.7206 55.5 49.1022 55.5 49.5C55.5 49.8978 55.658 50.2794 55.9393 50.5607C56.2206 50.842 56.6022 51 57 51H58.5C58.8978 51 59.2794 51.158 59.5607 51.4393C59.842 51.7206 60 52.1022 60 52.5C60 52.8978 59.842 53.2794 59.5607 53.5607C59.2794 53.842 58.8978 54 58.5 54Z" fill="#D7E9F7"/>
<path d="M66 54H64.5C64.1022 54 63.7206 53.842 63.4393 53.5607C63.158 53.2794 63 52.8978 63 52.5C63 52.1022 63.158 51.7206 63.4393 51.4393C63.7206 51.158 64.1022 51 64.5 51H66C66.3978 51 66.7794 51.158 67.0607 51.4393C67.342 51.7206 67.5 52.1022 67.5 52.5C67.5 52.8978 67.342 53.2794 67.0607 53.5607C66.7794 53.842 66.3978 54 66 54ZM63 42H49.5C48.3065 42 47.1619 41.5259 46.318 40.682C45.4741 39.8381 45 38.6935 45 37.5C45 36.3065 45.4741 35.1619 46.318 34.318C47.1619 33.4741 48.3065 33 49.5 33H51C51.3978 33 51.7794 33.158 52.0607 33.4393C52.342 33.7206 52.5 34.1022 52.5 34.5C52.5 34.8978 52.342 35.2794 52.0607 35.5607C51.7794 35.842 51.3978 36 51 36H49.5C49.1022 36 48.7206 36.158 48.4393 36.4393C48.158 36.7206 48 37.1022 48 37.5C48 37.8978 48.158 38.2794 48.4393 38.5607C48.7206 38.842 49.1022 39 49.5 39H63C63.3978 39 63.7794 39.158 64.0607 39.4393C64.342 39.7206 64.5 40.1022 64.5 40.5C64.5 40.8978 64.342 41.2794 64.0607 41.5607C63.7794 41.842 63.3978 42 63 42Z" fill="#D7E9F7"/>
<path d="M58.5 36H57C56.6022 36 56.2206 35.842 55.9393 35.5607C55.658 35.2794 55.5 34.8978 55.5 34.5C55.5 34.1022 55.658 33.7206 55.9393 33.4393C56.2206 33.158 56.6022 33 57 33H58.5C58.8978 33 59.2794 33.158 59.5607 33.4393C59.842 33.7206 60 34.1022 60 34.5C60 34.8978 59.842 35.2794 59.5607 35.5607C59.2794 35.842 58.8978 36 58.5 36Z" fill="#D7E9F7"/>
<defs>
<linearGradient id="paint0_linear_96_6914" x1="52.5" y1="61.5" x2="66" y2="61.5" gradientUnits="userSpaceOnUse">
<stop stop-color="#8937F5"/>
<stop offset="1" stop-color="#C394FF"/>
</linearGradient>
<linearGradient id="paint1_linear_96_6914" x1="45" y1="63.75" x2="58.5" y2="63.75" gradientUnits="userSpaceOnUse">
<stop stop-color="#8937F5"/>
<stop offset="1" stop-color="#C394FF"/>
</linearGradient>
<linearGradient id="paint2_linear_96_6914" x1="30" y1="4.41158e-08" x2="30" y2="56.25" gradientUnits="userSpaceOnUse">
<stop stop-color="#9C52FB"/>
<stop offset="1" stop-color="#B275FF"/>
</linearGradient>
<linearGradient id="paint3_linear_96_6914" x1="19.5" y1="31.5" x2="4.5" y2="31.5" gradientUnits="userSpaceOnUse">
<stop stop-color="#9C52FB"/>
<stop offset="1" stop-color="#B275FF"/>
</linearGradient>
<linearGradient id="paint4_linear_96_6914" x1="40.5" y1="16.5" x2="55.5" y2="16.5" gradientUnits="userSpaceOnUse">
<stop stop-color="#9C52FB"/>
<stop offset="1" stop-color="#B275FF"/>
</linearGradient>
</defs>
</svg>