<svg width="14" height="14" viewBox="0 0 14 14" fill="none" xmlns="http://www.w3.org/2000/svg">
<path d="M8.08984 9.22559C8.29151 9.22633 8.45491 9.39554 8.45508 9.60254V11.4238C8.45497 11.6314 8.33696 11.8192 8.15332 11.9062L5.21484 13.2861C5.14629 13.3179 5.07363 13.333 5.00098 13.333C4.90419 13.333 4.80708 13.3049 4.72266 13.249C4.57526 13.1514 4.48633 12.9829 4.48633 12.8027V9.59277C4.48643 9.38428 4.65109 9.21511 4.85352 9.21582L8.08984 9.22559ZM11.9141 0C12.6979 0 13.333 0.654446 13.333 1.46191V2.48242C13.333 2.87412 13.18 3.25008 12.9082 3.52441L8.57129 7.91113C8.49648 7.98741 8.395 8.03 8.29004 8.0293L4.65918 8.01855C4.54871 8.01852 4.44364 7.9704 4.36816 7.8877L0.382812 3.50488C0.136463 3.23409 0 2.87604 0 2.50488V1.46191C0.000155143 0.654582 0.635172 0 1.41895 0H11.9141Z" fill="#200E32"/>
</svg>
