<svg width="12" height="14" viewBox="0 0 12 14" fill="none" xmlns="http://www.w3.org/2000/svg">
<path fill-rule="evenodd" clip-rule="evenodd" d="M5.58105 3.24926e-05C7.48374 3.24926e-05 9.0359 1.50474 9.1123 3.3887L9.11523 3.53421V4.58792C10.2993 4.99932 11.1504 6.12204 11.1504 7.44632V10.3057C11.1502 11.9781 9.79427 13.333 8.12207 13.333H3.02832C1.35609 13.333 0.00019768 11.9781 0 10.3057V7.44632C0 6.12202 0.851066 4.9993 2.03516 4.58792V3.51859C2.04371 1.56674 3.63182 -0.00824681 5.58105 3.24926e-05ZM3.02832 5.418C1.90821 5.418 1 6.32605 1 7.44632V10.3057C1.0002 11.4258 1.90833 12.333 3.02832 12.333H8.12207C9.24202 12.333 10.1502 11.4258 10.1504 10.3057V7.44632C10.1504 6.32607 9.24215 5.41804 8.12207 5.418H3.02832ZM5.5752 7.63577C5.82824 7.63581 6.03713 7.82347 6.07031 8.06742L6.0752 8.13577V9.61624C6.0751 9.89228 5.85125 10.1162 5.5752 10.1162C5.32206 10.1162 5.11319 9.92768 5.08008 9.68363L5.0752 9.61624V8.13577C5.0752 7.85963 5.29905 7.63577 5.5752 7.63577ZM5.5791 1.00003C4.2236 0.99422 3.11276 2.0539 3.03906 3.39066L3.03516 3.52054V4.418H8.11523V3.53421C8.11523 2.13501 6.98046 1.00004 5.5791 1.00003Z" fill="#200E32"/>
</svg>
