<svg width="13" height="13" viewBox="0 0 13 13" fill="none" xmlns="http://www.w3.org/2000/svg">
<path d="M5.73535 0C7.23516 8.47082e-05 8.45801 1.20246 8.45801 2.68262V5.57617H4.77051C4.50619 5.57617 4.29688 5.7822 4.29688 6.04199C4.29705 6.2956 4.5063 6.50684 4.77051 6.50684H8.45801V5.57617H10.96L9.99316 4.61621C9.81191 4.43496 9.81191 4.13828 9.99316 3.95703C10.1744 3.77007 10.4702 3.77021 10.6514 3.95117L12.416 5.70996C12.5064 5.80053 12.5547 5.91529 12.5547 6.04199C12.5546 6.16272 12.5065 6.28363 12.416 6.36816L10.6514 8.12598C10.5607 8.21659 10.44 8.26465 10.3252 8.26465C10.2044 8.26461 10.0838 8.21657 9.99316 8.12598C9.81195 7.94473 9.81194 7.64901 9.99316 7.46777L10.96 6.50684H8.45801V9.39453C8.45801 10.8747 7.23483 12.083 5.72266 12.083H2.72949C1.22347 12.083 0 10.8806 0 9.40039V2.68848C3.58865e-05 1.20228 1.22939 4.44365e-05 2.73535 0H5.73535Z" fill="#EE4169"/>
</svg>
