<svg width="18" height="18" viewBox="0 0 18 18" fill="none" xmlns="http://www.w3.org/2000/svg">
<path d="M1.12425 17.9942H5.89098C6.03894 17.995 6.18561 17.9667 6.32258 17.9107C6.45955 17.8548 6.58414 17.7724 6.68919 17.6682L14.4689 9.87725L17.6617 6.7519C17.767 6.64739 17.8507 6.52304 17.9078 6.38605C17.9648 6.24905 17.9942 6.10211 17.9942 5.95369C17.9942 5.80528 17.9648 5.65834 17.9078 5.52134C17.8507 5.38434 17.767 5.26 17.6617 5.15549L12.8949 0.332545C12.7904 0.227173 12.6661 0.143537 12.5291 0.086461C12.3921 0.0293854 12.2451 0 12.0967 0C11.9483 0 11.8014 0.0293854 11.6644 0.086461C11.5274 0.143537 11.403 0.227173 11.2985 0.332545L8.1282 3.51412L0.326045 11.305C0.22185 11.4101 0.139416 11.5347 0.0834689 11.6716C0.0275221 11.8086 -0.000836628 11.9553 1.87907e-05 12.1032V16.87C1.87907e-05 17.1681 0.118464 17.4541 0.329298 17.6649C0.540132 17.8757 0.826084 17.9942 1.12425 17.9942ZM12.0967 2.71591L15.2783 5.89748L13.6819 7.49389L10.5003 4.31232L12.0967 2.71591ZM2.24848 12.5642L8.91516 5.89748L12.0967 9.07905L5.43005 15.7457H2.24848V12.5642Z" fill="#9C52FB"/>
</svg>
