<svg width="11" height="14" viewBox="0 0 11 14" fill="none" xmlns="http://www.w3.org/2000/svg">
<path fill-rule="evenodd" clip-rule="evenodd" d="M3.88673 8.54688C4.84923 8.46197 5.81779 8.46197 6.78029 8.54688L7.08693 8.57324C7.50727 8.61468 7.92523 8.67892 8.33595 8.7666C9.38265 8.98226 10.143 9.36568 10.4795 10.0752C10.7293 10.603 10.7294 11.2161 10.4795 11.7441C10.1422 12.4555 9.37188 12.8411 8.34376 13.0439L8.03224 13.1084C7.61582 13.1883 7.19545 13.2429 6.77833 13.2715C5.99576 13.3381 5.2096 13.3503 4.45118 13.3086C4.36769 13.3086 4.31113 13.3088 4.26173 13.3076L4.16505 13.3037C4.04836 13.2977 3.94148 13.2856 3.8965 13.2725C3.36888 13.2366 2.8446 13.1603 2.34181 13.0469L2.17091 13.0107C1.21867 12.7991 0.513723 12.4177 0.187513 11.7432C0.0640111 11.4815 -0.000371823 11.1954 1.2531e-05 10.9082C-0.00103284 10.619 0.0633316 10.3332 0.191419 10.0664C0.5312 9.38411 1.32949 8.97309 2.32716 8.76758C2.84409 8.6568 3.36826 8.58287 3.88673 8.54688ZM6.69532 9.50879C5.7889 9.42885 4.87718 9.42813 3.96193 9.50879C3.47983 9.54233 3.00077 9.61084 2.52443 9.71289C1.78662 9.86488 1.22164 10.1553 1.05372 10.4922C0.992115 10.6208 0.960437 10.7621 0.96095 10.9072C0.960774 11.0534 0.993384 11.1982 1.05372 11.3262C1.22649 11.6828 1.75856 11.9497 2.5381 12.1025L2.77345 12.1523C3.16704 12.2304 3.57296 12.2844 4.02345 12.3184C4.08013 12.3297 4.14138 12.3361 4.21388 12.3398L4.47657 12.3447C5.21668 12.3848 5.95869 12.373 6.70509 12.3096C7.18613 12.2766 7.66417 12.2072 8.1465 12.0996L8.29591 12.0684C8.98091 11.913 9.45535 11.6581 9.61134 11.3291C9.73697 11.0635 9.73699 10.7546 9.61134 10.4893C9.44412 10.1374 8.91592 9.87204 8.13868 9.71191C7.66579 9.61099 7.18639 9.54273 6.70411 9.50879H6.69532ZM5.33693 0C7.29257 0.000389501 8.87787 1.59259 8.87794 3.55664C8.87794 5.52076 7.29261 7.11289 5.33693 7.11328C3.38091 7.11328 1.79493 5.521 1.79493 3.55664C1.79501 1.59235 3.38096 0 5.33693 0ZM5.33693 0.964844C3.91171 0.964844 2.75595 2.12537 2.75587 3.55664C2.75587 4.98798 3.91166 6.14844 5.33693 6.14844C6.76186 6.14805 7.917 4.98774 7.917 3.55664C7.91693 2.12561 6.76181 0.965233 5.33693 0.964844Z" fill="#200E32"/>
</svg>
