<svg width="14" height="14" viewBox="0 0 14 14" fill="none" xmlns="http://www.w3.org/2000/svg">
<path d="M13.4204 12.6543L11.1288 10.4139L11.0751 10.3322C10.9752 10.2328 10.8387 10.1768 10.6961 10.1768C10.5536 10.1768 10.417 10.2328 10.3172 10.3322C8.36967 12.1189 5.36878 12.216 3.30469 10.5591C1.24059 8.90228 0.753798 6.00558 2.16714 3.79011C3.58049 1.57465 6.4554 0.727898 8.88525 1.81142C11.3151 2.89495 12.5459 5.57253 11.7614 8.0684C11.7049 8.2487 11.751 8.44478 11.8825 8.58278C12.014 8.72077 12.2108 8.77971 12.3987 8.73739C12.5867 8.69508 12.7373 8.55793 12.7938 8.37763C13.7316 5.41576 12.3152 2.22837 9.46076 0.877372C6.60635 -0.473626 3.17058 0.417216 1.37606 2.97361C-0.418467 5.53001 -0.0331948 8.98476 2.28264 11.103C4.59847 13.2212 8.14987 13.3673 10.6394 11.4466L12.6685 13.4303C12.878 13.6343 13.2168 13.6343 13.4264 13.4303C13.6357 13.2235 13.6357 12.8904 13.4264 12.6835L13.4204 12.6543Z" fill="#0B032D" stroke="#0B032D" stroke-width="0.5"/>
</svg>
