<svg width="12" height="13" viewBox="0 0 12 13" fill="none" xmlns="http://www.w3.org/2000/svg">
<path d="M10.9013 6.44124C10.8044 6.33098 10.751 6.18924 10.751 6.04249C10.751 5.89573 10.8044 5.75399 10.9013 5.64374L11.6746 4.77374C11.7598 4.67868 11.8127 4.55908 11.8257 4.43209C11.8388 4.30509 11.8112 4.17724 11.7471 4.06686L10.5388 1.97645C10.4753 1.8662 10.3786 1.77881 10.2625 1.72674C10.1464 1.67466 10.0169 1.66056 9.89229 1.68645L8.75646 1.91603C8.61193 1.94589 8.46147 1.92182 8.33348 1.84836C8.20548 1.7749 8.10879 1.65713 8.06167 1.51728L7.69313 0.411655C7.6526 0.291655 7.57538 0.187428 7.47238 0.113705C7.36939 0.0399831 7.24583 0.000494689 7.11917 0.000821641H4.7025C4.57075 -0.00605501 4.44037 0.0303813 4.33128 0.104566C4.22219 0.17875 4.14037 0.286604 4.09834 0.411655L3.76 1.51728C3.71288 1.65713 3.61619 1.7749 3.48819 1.84836C3.3602 1.92182 3.20974 1.94589 3.06521 1.91603L1.89917 1.68645C1.78108 1.66976 1.6607 1.68839 1.55319 1.74C1.44568 1.79161 1.35584 1.87388 1.295 1.97645L0.0866683 4.06686C0.0209108 4.17601 -0.00865586 4.30314 0.00219527 4.4301C0.0130464 4.55706 0.0637597 4.67734 0.147085 4.77374L0.914376 5.64374C1.01124 5.75399 1.06465 5.89573 1.06465 6.04249C1.06465 6.18924 1.01124 6.33098 0.914376 6.44124L0.147085 7.31124C0.0637597 7.40764 0.0130464 7.52792 0.00219527 7.65487C-0.00865586 7.78183 0.0209108 7.90897 0.0866683 8.01811L1.295 10.1085C1.3585 10.2188 1.45518 10.3062 1.57126 10.3582C1.68734 10.4103 1.8169 10.4244 1.94146 10.3985L3.07729 10.1689C3.22182 10.1391 3.37228 10.1632 3.50028 10.2366C3.62828 10.3101 3.72496 10.4278 3.77209 10.5677L4.14063 11.6733C4.18266 11.7984 4.26448 11.9062 4.37357 11.9804C4.48267 12.0546 4.61305 12.091 4.74479 12.0842H7.16146C7.28812 12.0845 7.41168 12.045 7.51467 11.9713C7.61767 11.8975 7.69489 11.7933 7.73542 11.6733L8.10396 10.5677C8.15108 10.4278 8.24777 10.3101 8.37577 10.2366C8.50377 10.1632 8.65422 10.1391 8.79875 10.1689L9.93459 10.3985C10.0591 10.4244 10.1887 10.4103 10.3048 10.3582C10.4209 10.3062 10.5175 10.2188 10.581 10.1085L11.7894 8.01811C11.8535 7.90774 11.8811 7.77988 11.868 7.65289C11.855 7.5259 11.8021 7.40629 11.7169 7.31124L10.9013 6.44124ZM10.001 7.25082L10.4844 7.79457L9.71104 9.13582L8.99813 8.99082C8.56299 8.90187 8.11035 8.97579 7.72611 9.19853C7.34188 9.42128 7.0528 9.77735 6.91375 10.1992L6.68417 10.8758H5.1375L4.92 10.1871C4.78096 9.76527 4.49188 9.4092 4.10764 9.18645C3.72341 8.96371 3.27076 8.88979 2.83563 8.97874L2.12271 9.12374L1.33729 7.78853L1.82063 7.24478C2.11785 6.91247 2.28217 6.48228 2.28217 6.03645C2.28217 5.59061 2.11785 5.16042 1.82063 4.82811L1.33729 4.28436L2.11063 2.9552L2.82354 3.1002C3.25868 3.18914 3.71132 3.11523 4.09556 2.89248C4.47979 2.66974 4.76887 2.31367 4.90792 1.89186L5.1375 1.20915H6.68417L6.91375 1.8979C7.0528 2.31971 7.34188 2.67578 7.72611 2.89852C8.11035 3.12127 8.56299 3.19518 8.99813 3.10624L9.71104 2.96124L10.4844 4.30249L10.001 4.84624C9.70716 5.17778 9.54488 5.60548 9.54488 6.04853C9.54488 6.49158 9.70716 6.91928 10.001 7.25082ZM5.91084 3.62582C5.43286 3.62582 4.96563 3.76756 4.56821 4.0331C4.17079 4.29865 3.86104 4.67608 3.67813 5.11767C3.49521 5.55926 3.44736 6.04517 3.5406 6.51396C3.63385 6.98274 3.86402 7.41335 4.20199 7.75133C4.53997 8.08931 4.97058 8.31947 5.43937 8.41272C5.90815 8.50597 6.39406 8.45811 6.83565 8.2752C7.27724 8.09229 7.65467 7.78253 7.92022 7.38512C8.18577 6.9877 8.3275 6.52046 8.3275 6.04249C8.3275 5.40155 8.07289 4.78686 7.61968 4.33365C7.16646 3.88043 6.55177 3.62582 5.91084 3.62582ZM5.91084 7.25082C5.67185 7.25082 5.43823 7.17995 5.23952 7.04718C5.04081 6.91441 4.88594 6.72569 4.79448 6.5049C4.70302 6.2841 4.6791 6.04115 4.72572 5.80675C4.77234 5.57236 4.88743 5.35706 5.05641 5.18807C5.2254 5.01908 5.44071 4.904 5.6751 4.85737C5.90949 4.81075 6.15245 4.83468 6.37324 4.92613C6.59404 5.01759 6.78275 5.17246 6.91553 5.37117C7.0483 5.56988 7.11917 5.8035 7.11917 6.04249C7.11917 6.36296 6.99186 6.6703 6.76526 6.89691C6.53865 7.12351 6.23131 7.25082 5.91084 7.25082Z" fill="#0B032D"/>
</svg>
