<svg width="13" height="13" viewBox="0 0 13 13" fill="none" xmlns="http://www.w3.org/2000/svg">
<path fill-rule="evenodd" clip-rule="evenodd" d="M8.00086 1.65411C8.00086 2.99596 9.09023 4.08374 10.434 4.08374C10.582 4.08301 10.7296 4.06881 10.875 4.0413V8.85813C10.875 10.8846 9.67965 12.0835 7.65022 12.0835H3.23009C1.19535 12.0835 0 10.8846 0 8.85813V4.44447C0 2.41801 1.19535 1.2085 3.23009 1.2085H8.04336C8.01479 1.35531 8.00056 1.50455 8.00086 1.65411ZM6.73644 7.79185L8.46306 5.5638V5.55319C8.61087 5.35457 8.57316 5.07449 8.37805 4.92191C8.28362 4.84901 8.16362 4.81746 8.04548 4.83445C7.92734 4.85145 7.82115 4.91554 7.75116 5.01209L6.29549 6.88472L4.63795 5.57972C4.54331 5.50599 4.42293 5.47344 4.30397 5.48941C4.18501 5.50538 4.07751 5.56853 4.00574 5.66459L2.22069 7.96691C2.15794 8.04512 2.12417 8.14256 2.12506 8.24276C2.1147 8.44529 2.24259 8.62925 2.43623 8.69038C2.62987 8.7515 2.84042 8.67437 2.94852 8.5027L4.44138 6.57173L6.09893 7.87142C6.1932 7.94743 6.31438 7.98189 6.43461 7.96688C6.55485 7.95187 6.6638 7.88869 6.73644 7.79185Z" fill="#7E7695"/>
<circle cx="10.5729" cy="1.51042" r="1.51042" fill="#7E7695"/>
</svg>
