<svg width="14" height="13" viewBox="0 0 14 13" fill="none" xmlns="http://www.w3.org/2000/svg">
<path d="M6.76484 12.9728C5.21993 12.9744 3.72113 12.4465 2.5181 11.4773C1.31507 10.508 0.480454 9.15582 0.153286 7.64595C-0.173883 6.13608 0.0261482 4.55969 0.720057 3.17939C1.41397 1.79908 2.55986 0.698199 3.96684 0.0601256C4.08104 0.00803474 4.20762 -0.0107611 4.33202 0.00590021C4.45642 0.0225615 4.5736 0.0740032 4.67006 0.154307C4.76652 0.234611 4.83836 0.340516 4.8773 0.459836C4.91624 0.579157 4.9207 0.707047 4.89018 0.828792C4.68594 1.62902 4.6677 2.4654 4.83684 3.27377C5.00599 4.08214 5.35804 4.84104 5.86598 5.49225C6.37392 6.14346 7.02426 6.66968 7.76712 7.03056C8.50999 7.39144 9.32564 7.57738 10.1515 7.57413C10.925 7.57412 11.6895 7.40745 12.3928 7.08546C12.5071 7.03348 12.6337 7.0148 12.758 7.03157C12.8824 7.04833 12.9995 7.09986 13.0959 7.18023C13.1923 7.2606 13.264 7.36654 13.3029 7.48588C13.3417 7.60521 13.3461 7.73308 13.3155 7.85479C12.9518 9.31673 12.1092 10.6149 10.922 11.5423C9.73482 12.4697 8.27135 12.9737 6.76484 12.9728Z" fill="#7E7695"/>
</svg>
