<svg width="16" height="16" viewBox="0 0 16 16" fill="none" xmlns="http://www.w3.org/2000/svg">
<path opacity="0.4" d="M11.7299 7.28789C12.7981 7.28789 13.6647 6.42194 13.6647 5.35372C13.6647 4.2855 12.7981 3.41956 11.7299 3.41956" stroke="#200E32" stroke-width="1.5" stroke-linecap="round" stroke-linejoin="round"/>
<path d="M12.6194 9.38977C12.9384 9.41177 13.2556 9.45699 13.5678 9.52727C14.0017 9.61221 14.5236 9.79005 14.7094 10.1793C14.8279 10.4287 14.8279 10.7189 14.7094 10.9689C14.5242 11.3582 14.0017 11.5354 13.5678 11.6246" stroke="#200E32" stroke-width="1.5" stroke-linecap="round" stroke-linejoin="round"/>
<path opacity="0.4" d="M4.19332 7.28789C3.1251 7.28789 2.25854 6.42194 2.25854 5.35372C2.25854 4.2855 3.1251 3.41956 4.19332 3.41956" stroke="#200E32" stroke-width="1.5" stroke-linecap="round" stroke-linejoin="round"/>
<path d="M3.30386 9.38977C2.98486 9.41177 2.66769 9.45699 2.35541 9.52727C1.92152 9.61221 1.39963 9.79005 1.21447 10.1793C1.0953 10.4287 1.0953 10.7189 1.21447 10.9689C1.39902 11.3582 1.92152 11.5354 2.35541 11.6246" stroke="#200E32" stroke-width="1.5" stroke-linecap="round" stroke-linejoin="round"/>
<path fill-rule="evenodd" clip-rule="evenodd" d="M7.95851 9.80627C10.1231 9.80627 11.9723 10.1338 11.9723 11.4447C11.9723 12.7549 10.1353 13.0947 7.95851 13.0947C5.79334 13.0947 3.94473 12.7671 3.94473 11.4563C3.94473 10.1454 5.78173 9.80627 7.95851 9.80627Z" stroke="#200E32" stroke-width="1.5" stroke-linecap="round" stroke-linejoin="round"/>
<path opacity="0.4" fill-rule="evenodd" clip-rule="evenodd" d="M7.95852 7.93657C6.53096 7.93657 5.38635 6.79196 5.38635 5.36379C5.38635 3.93624 6.53096 2.79163 7.95852 2.79163C9.38607 2.79163 10.5307 3.93624 10.5307 5.36379C10.5307 6.79196 9.38607 7.93657 7.95852 7.93657Z" stroke="#200E32" stroke-width="1.5" stroke-linecap="round" stroke-linejoin="round"/>
</svg>
